<?xml version="1.0" encoding="utf-8"?>
<!-- Generator: Adobe Illustrator 21.1.0, SVG Export Plug-In . SVG Version: 6.00 Build 0)  -->
<svg version="1.1" id="flag-icon-css-az" xmlns="http://www.w3.org/2000/svg" xmlns:xlink="http://www.w3.org/1999/xlink" x="0px"
	 y="0px" viewBox="0 0 640 480" style="enable-background:new 0 0 640 480;" xml:space="preserve">
<style type="text/css">
	.st0{fill:#898989;}
	.st1{fill:#DBDBDB;stroke:#515151;stroke-width:5;stroke-miterlimit:10;}
	.st2{fill:#1C1A1A;}
</style>
<rect class="st0" width="640" height="480"/>
<g id="Layer_2">
	<circle class="st1" cx="320" cy="240" r="177"/>
</g>
<g>
	<path class="st2" d="M321,184.2c-11.2,0-20.8,7.2-27.8,15.2c-4.2,5.2-9.5,6.5-15.2,3.8l-13-6.2c-6.8-3.2-8.8-8.8-4.5-15
		c4.2-7,11.8-16.2,22-23.8c10-7.5,22.8-13.2,38.5-13.2c13,0,25.2,3.5,35.2,10s17.5,16,20.8,28c4,15.8,0.8,28-4.8,37.5
		s-13.5,16.2-18.5,20c-7.8,5.8-14.8,12.5-18.5,19.2c-2.8,5.2-4,10-11.2,10h-18.8c-7.2,0-11.2-1.8-11.2-8.8
		c0-13.2,10.8-27.2,28.8-42.2l4.5-3.8c3.8-3,7.8-7,10-11.8s1.5-9.5-4-15C330.5,185.5,326.2,184.2,321,184.2z M342.5,311.8
		c0,7.2-3,13.8-7.8,18.5c-4.8,5-11.5,7.8-18.8,7.8s-13.8-2.8-18.5-7.8c-5-4.8-7.8-11.2-7.8-18.5s2.8-14,7.8-18.8
		c4.8-4.8,11.2-7.8,18.5-7.8C331,285.2,342.5,296.8,342.5,311.8z"/>
</g>
</svg>
