<?xml version="1.0" encoding="UTF-8" ?>
<!DOCTYPE svg PUBLIC "-//W3C//DTD SVG 1.1//EN" "http://www.w3.org/Graphics/SVG/1.1/DTD/svg11.dtd">
<svg width="220pt" height="220pt" viewBox="0 0 220 220" version="1.1" xmlns="http://www.w3.org/2000/svg">
<g id="#ffffffff">
<path fill="#ffffff" opacity="1.00" d=" M 8.80 8.79 C 34.08 14.76 59.13 21.71 84.43 27.55 C 86.83 35.31 88.47 43.27 91.08 50.96 C 91.88 53.13 91.61 55.48 92.10 57.72 C 95.94 73.08 99.81 88.44 103.57 103.82 C 78.18 97.53 52.76 91.30 27.42 84.82 C 25.27 75.61 22.93 66.45 20.69 57.26 C 16.97 48.84 15.54 39.64 13.55 30.70 C 12.79 23.24 10.29 16.12 8.80 8.79 M 16.96 17.03 C 18.59 24.22 21.90 30.86 23.92 37.94 C 28.37 50.61 31.70 63.68 36.60 76.19 C 52.17 81.35 67.74 86.51 83.28 91.75 C 87.10 93.00 90.85 94.56 94.87 95.03 C 94.26 89.19 91.52 83.87 89.90 78.28 C 85.69 64.91 80.79 51.78 76.41 38.47 C 75.83 35.94 72.93 35.77 70.93 34.95 C 52.85 29.27 35.17 22.32 16.96 17.03 Z" />
<path fill="#ffffff" opacity="1.00" d=" M 150.63 24.71 C 171.75 19.40 192.94 14.35 214.04 8.92 C 212.40 15.81 209.85 22.60 209.62 29.73 C 207.77 36.85 205.72 43.92 204.14 51.11 C 199.82 62.00 198.06 73.73 194.77 84.96 C 169.47 91.31 144.20 97.75 118.87 103.97 C 122.63 88.48 126.48 73.00 130.33 57.53 C 130.92 55.24 129.73 52.89 130.46 50.60 C 132.35 42.92 135.03 35.44 136.90 27.74 C 141.54 27.06 146.07 25.81 150.63 24.71 M 151.49 35.22 C 149.42 36.05 146.42 36.26 145.96 38.95 C 139.69 57.90 132.77 76.67 127.10 95.81 C 131.26 94.97 135.22 93.41 139.24 92.08 C 154.88 86.75 170.65 81.79 186.22 76.26 C 191.66 60.51 196.35 44.50 201.87 28.78 C 203.30 24.96 204.79 21.15 205.68 17.16 C 187.39 22.48 169.68 29.57 151.49 35.22 Z" />
<path fill="#ffffff" opacity="1.00" d=" M 118.87 117.03 C 144.20 123.25 169.47 129.69 194.77 136.04 C 197.11 144.82 199.25 153.66 201.48 162.47 C 202.23 165.89 204.29 168.86 204.75 172.38 C 206.25 180.58 209.80 188.37 210.11 196.75 C 211.42 201.86 212.60 207.00 214.04 212.08 C 196.98 207.65 179.82 203.61 162.73 199.28 C 154.09 197.27 145.55 194.78 136.82 193.17 C 135.24 186.58 133.19 180.11 131.24 173.62 C 130.61 171.27 129.89 168.83 130.39 166.38 C 130.88 163.85 129.70 161.42 129.21 158.98 C 125.76 145.00 122.24 131.03 118.87 117.03 M 127.07 126.32 C 127.99 130.93 129.80 135.28 131.22 139.74 C 136.16 154.99 141.49 170.09 146.72 185.23 C 166.35 191.75 185.79 198.88 205.56 204.98 C 204.02 198.48 201.20 192.40 199.20 186.05 C 194.63 172.70 190.77 159.12 186.04 145.82 C 166.39 139.32 146.84 132.44 127.07 126.32 Z" />
<path fill="#ffffff" opacity="1.00" d=" M 27.43 136.17 C 52.77 129.71 78.18 123.46 103.57 117.18 C 99.81 132.56 95.93 147.92 92.10 163.29 C 91.61 165.51 91.88 167.87 91.08 170.04 C 88.47 177.73 86.83 185.70 84.43 193.45 C 59.13 199.29 34.08 206.24 8.80 212.21 C 9.83 207.22 11.25 202.32 12.40 197.35 C 14.40 185.73 16.44 173.92 20.90 162.96 C 23.03 154.02 25.35 145.12 27.43 136.17 M 36.47 144.69 C 34.01 150.48 32.40 156.58 30.30 162.50 C 26.18 176.45 21.03 190.07 16.60 203.91 C 35.11 198.54 53.07 191.43 71.49 185.75 C 73.10 185.03 75.44 184.93 76.05 182.96 C 82.80 163.75 89.16 144.40 95.74 125.13 C 75.91 131.39 56.22 138.16 36.47 144.69 Z" />
</g>
<g id="#ff0000ff">
<path fill="#ff0000" opacity="1.00" d=" M 16.96 17.03 C 35.17 22.32 52.85 29.27 70.93 34.95 C 72.93 35.77 75.83 35.94 76.41 38.47 C 80.79 51.78 85.69 64.91 89.90 78.28 C 91.52 83.87 94.26 89.19 94.87 95.03 C 90.85 94.56 87.10 93.00 83.28 91.75 C 67.74 86.51 52.17 81.35 36.60 76.19 C 31.70 63.68 28.37 50.61 23.92 37.94 C 21.90 30.86 18.59 24.22 16.96 17.03 Z" />
<path fill="#ff0000" opacity="1.00" d=" M 151.49 35.22 C 169.68 29.57 187.39 22.48 205.68 17.16 C 204.79 21.15 203.30 24.96 201.87 28.78 C 196.35 44.50 191.66 60.51 186.22 76.26 C 170.65 81.79 154.88 86.75 139.24 92.08 C 135.22 93.41 131.26 94.97 127.10 95.81 C 132.77 76.67 139.69 57.90 145.96 38.95 C 146.42 36.26 149.42 36.05 151.49 35.22 Z" />
<path fill="#ff0000" opacity="1.00" d=" M 36.47 144.69 C 56.22 138.16 75.91 131.39 95.74 125.13 C 89.16 144.40 82.80 163.75 76.05 182.96 C 75.44 184.93 73.10 185.03 71.49 185.75 C 53.07 191.43 35.11 198.54 16.60 203.91 C 21.03 190.07 26.18 176.45 30.30 162.50 C 32.40 156.58 34.01 150.48 36.47 144.69 Z" />
<path fill="#ff0000" opacity="1.00" d=" M 127.07 126.32 C 146.84 132.44 166.39 139.32 186.04 145.82 C 190.77 159.12 194.63 172.70 199.20 186.05 C 201.20 192.40 204.02 198.48 205.56 204.98 C 185.79 198.88 166.35 191.75 146.72 185.23 C 141.49 170.09 136.16 154.99 131.22 139.74 C 129.80 135.28 127.99 130.93 127.07 126.32 Z" />
</g>
</svg>
